<svg width="38" height="40" viewBox="0 0 38 40" fill="none" xmlns="http://www.w3.org/2000/svg">
<mask id="path-1-outside-1" maskUnits="userSpaceOnUse" x="-0.499512" y="-0.446533" width="39" height="40" fill="black">
<rect fill="white" x="-0.499512" y="-0.446533" width="39" height="40"/>
<path fill-rule="evenodd" clip-rule="evenodd" d="M35.2913 6.28058C36.7493 7.75386 37.5811 9.69564 37.6333 11.7483C37.7331 15.6609 35.0128 19.0671 31.2351 19.8653V27.3426C31.2351 27.6536 30.983 27.9058 30.6719 27.9058C30.3608 27.9058 30.1087 27.6536 30.1087 27.3426L30.1007 16.0905C30.1007 15.7795 30.3527 15.5274 30.6638 15.5274C30.975 15.5274 31.227 15.7795 31.227 16.0905V18.7118C34.3601 17.94 36.5911 15.0665 36.5074 11.7769C36.4624 10.0121 35.7462 8.34145 34.4906 7.07279C33.2351 5.80405 31.5721 5.07071 29.808 5.00779C28.8905 4.9752 27.9932 5.11832 27.141 5.43363C26.9199 5.5154 26.6714 5.4509 26.518 5.27203C24.5605 2.98919 21.7152 1.67983 18.7115 1.67983C15.7943 1.67983 13.0034 2.92709 11.0545 5.10195C10.9109 5.26227 10.6888 5.32655 10.4817 5.26798C9.8617 5.09241 9.22268 5.00336 8.5826 5.00336C4.74726 5.00336 1.62693 8.12369 1.62693 11.9591C1.62693 13.6361 2.23201 15.2558 3.33082 16.5196C4.27351 17.6038 5.52362 18.3659 6.90139 18.7086V16.0906C6.90139 15.7796 7.15355 15.5274 7.46457 15.5274C7.7756 15.5274 8.02776 15.7796 8.02776 16.0906V23.7018C8.02776 24.0129 7.7756 24.265 7.46457 24.265C7.15355 24.265 6.90139 24.0129 6.90139 23.7018V19.8651C5.1927 19.5027 3.63734 18.589 2.48079 17.2586C1.20379 15.7897 0.500488 13.9076 0.500488 11.959C0.500488 7.50261 4.12611 3.87692 8.58253 3.87692C9.21051 3.87692 9.83722 3.95058 10.4503 4.09618C12.5988 1.84053 15.5899 0.553467 18.7115 0.553467C21.916 0.553467 24.958 1.89647 27.118 4.25125C27.9977 3.97296 28.9142 3.84883 29.8483 3.88225C31.9001 3.95539 33.8331 4.80714 35.2913 6.28058ZM30.1087 29.5953C30.1087 29.2843 30.3608 29.0321 30.6719 29.0321C30.9829 29.0321 31.2351 29.2843 31.235 29.5953V37.6084C31.235 38.3757 30.6108 39 29.8435 39H8.29283C7.52548 39 6.90125 38.3757 6.90125 37.6084V25.9545C6.90125 25.6435 7.1534 25.3913 7.46443 25.3913C7.77545 25.3913 8.02761 25.6435 8.02761 25.9545V31.926H11.5074V25.3449C11.5074 25.0339 11.7596 24.7817 12.0706 24.7817C12.3816 24.7817 12.6338 25.0339 12.6338 25.3449V31.926H15.1131V22.8029C15.1131 22.4919 15.3653 22.2397 15.6763 22.2397C15.9873 22.2397 16.2395 22.4919 16.2395 22.8029V31.926H18.7188V25.3449C18.7188 25.0339 18.971 24.7817 19.282 24.7817C19.5931 24.7817 19.8452 25.0339 19.8452 25.3449V31.926H22.5195V22.8029C22.5195 22.4919 22.7716 22.2397 23.0827 22.2397C23.3938 22.2397 23.6459 22.4919 23.6459 22.8029V31.926H25.6744V25.3448C25.6744 25.0338 25.9265 24.7817 26.2376 24.7817C26.5487 24.7817 26.8008 25.0338 26.8008 25.3448V31.926H30.1087V29.5953ZM8.29283 37.8736H29.8435C29.9898 37.8736 30.1087 37.7546 30.1087 37.6084V33.0524H8.02761V37.6084C8.02761 37.7546 8.14655 37.8736 8.29283 37.8736Z"/>
</mask>
<path fill-rule="evenodd" clip-rule="evenodd" d="M35.2913 6.28058C36.7493 7.75386 37.5811 9.69564 37.6333 11.7483C37.7331 15.6609 35.0128 19.0671 31.2351 19.8653V27.3426C31.2351 27.6536 30.983 27.9058 30.6719 27.9058C30.3608 27.9058 30.1087 27.6536 30.1087 27.3426L30.1007 16.0905C30.1007 15.7795 30.3527 15.5274 30.6638 15.5274C30.975 15.5274 31.227 15.7795 31.227 16.0905V18.7118C34.3601 17.94 36.5911 15.0665 36.5074 11.7769C36.4624 10.0121 35.7462 8.34145 34.4906 7.07279C33.2351 5.80405 31.5721 5.07071 29.808 5.00779C28.8905 4.9752 27.9932 5.11832 27.141 5.43363C26.9199 5.5154 26.6714 5.4509 26.518 5.27203C24.5605 2.98919 21.7152 1.67983 18.7115 1.67983C15.7943 1.67983 13.0034 2.92709 11.0545 5.10195C10.9109 5.26227 10.6888 5.32655 10.4817 5.26798C9.8617 5.09241 9.22268 5.00336 8.5826 5.00336C4.74726 5.00336 1.62693 8.12369 1.62693 11.9591C1.62693 13.6361 2.23201 15.2558 3.33082 16.5196C4.27351 17.6038 5.52362 18.3659 6.90139 18.7086V16.0906C6.90139 15.7796 7.15355 15.5274 7.46457 15.5274C7.7756 15.5274 8.02776 15.7796 8.02776 16.0906V23.7018C8.02776 24.0129 7.7756 24.265 7.46457 24.265C7.15355 24.265 6.90139 24.0129 6.90139 23.7018V19.8651C5.1927 19.5027 3.63734 18.589 2.48079 17.2586C1.20379 15.7897 0.500488 13.9076 0.500488 11.959C0.500488 7.50261 4.12611 3.87692 8.58253 3.87692C9.21051 3.87692 9.83722 3.95058 10.4503 4.09618C12.5988 1.84053 15.5899 0.553467 18.7115 0.553467C21.916 0.553467 24.958 1.89647 27.118 4.25125C27.9977 3.97296 28.9142 3.84883 29.8483 3.88225C31.9001 3.95539 33.8331 4.80714 35.2913 6.28058ZM30.1087 29.5953C30.1087 29.2843 30.3608 29.0321 30.6719 29.0321C30.9829 29.0321 31.2351 29.2843 31.235 29.5953V37.6084C31.235 38.3757 30.6108 39 29.8435 39H8.29283C7.52548 39 6.90125 38.3757 6.90125 37.6084V25.9545C6.90125 25.6435 7.1534 25.3913 7.46443 25.3913C7.77545 25.3913 8.02761 25.6435 8.02761 25.9545V31.926H11.5074V25.3449C11.5074 25.0339 11.7596 24.7817 12.0706 24.7817C12.3816 24.7817 12.6338 25.0339 12.6338 25.3449V31.926H15.1131V22.8029C15.1131 22.4919 15.3653 22.2397 15.6763 22.2397C15.9873 22.2397 16.2395 22.4919 16.2395 22.8029V31.926H18.7188V25.3449C18.7188 25.0339 18.971 24.7817 19.282 24.7817C19.5931 24.7817 19.8452 25.0339 19.8452 25.3449V31.926H22.5195V22.8029C22.5195 22.4919 22.7716 22.2397 23.0827 22.2397C23.3938 22.2397 23.6459 22.4919 23.6459 22.8029V31.926H25.6744V25.3448C25.6744 25.0338 25.9265 24.7817 26.2376 24.7817C26.5487 24.7817 26.8008 25.0338 26.8008 25.3448V31.926H30.1087V29.5953ZM8.29283 37.8736H29.8435C29.9898 37.8736 30.1087 37.7546 30.1087 37.6084V33.0524H8.02761V37.6084C8.02761 37.7546 8.14655 37.8736 8.29283 37.8736Z" fill="#A9FFB2"/>
<path d="M37.6333 11.7483L37.4834 11.7521L37.4834 11.7521L37.6333 11.7483ZM35.2913 6.28058L35.1846 6.38609L35.1846 6.38609L35.2913 6.28058ZM31.2351 19.8653L31.2041 19.7185L31.0851 19.7437V19.8653H31.2351ZM30.1087 27.3426L30.2587 27.3426L30.2587 27.3425L30.1087 27.3426ZM30.1007 16.0905L29.9507 16.0905L29.9507 16.0906L30.1007 16.0905ZM31.227 18.7118H31.077V18.9032L31.2629 18.8575L31.227 18.7118ZM36.5074 11.7769L36.6573 11.7731L36.6573 11.7731L36.5074 11.7769ZM34.4906 7.07279L34.384 7.1783L34.384 7.1783L34.4906 7.07279ZM29.808 5.00779L29.8134 4.85788L29.8134 4.85788L29.808 5.00779ZM27.141 5.43363L27.193 5.57431L27.193 5.57431L27.141 5.43363ZM26.518 5.27203L26.4041 5.36967L26.4041 5.36969L26.518 5.27203ZM11.0545 5.10195L10.9428 5.00185L10.9428 5.00188L11.0545 5.10195ZM10.4817 5.26798L10.4408 5.4123L10.4408 5.41232L10.4817 5.26798ZM3.33082 16.5196L3.21762 16.618L3.21762 16.618L3.33082 16.5196ZM6.90139 18.7086L6.86518 18.8541L7.05139 18.9005V18.7086H6.90139ZM6.90139 19.8651H7.05139V19.7436L6.93251 19.7184L6.90139 19.8651ZM2.48079 17.2586L2.59399 17.1602L2.59399 17.1602L2.48079 17.2586ZM10.4503 4.09618L10.4157 4.24212L10.4995 4.26203L10.559 4.19964L10.4503 4.09618ZM27.118 4.25125L27.0074 4.35264L27.0721 4.4231L27.1632 4.39426L27.118 4.25125ZM29.8483 3.88225L29.8429 4.03215L29.8429 4.03215L29.8483 3.88225ZM31.235 29.5953L31.085 29.5952V29.5953H31.235ZM8.02761 31.926H7.87761V32.076H8.02761V31.926ZM11.5074 31.926V32.076H11.6574V31.926H11.5074ZM12.6338 31.926H12.4838V32.076H12.6338V31.926ZM15.1131 31.926V32.076H15.2631V31.926H15.1131ZM16.2395 31.926H16.0895V32.076H16.2395V31.926ZM18.7188 31.926V32.076H18.8688V31.926H18.7188ZM19.8452 31.926H19.6952V32.076H19.8452V31.926ZM22.5195 31.926V32.076H22.6695V31.926H22.5195ZM23.6459 31.926H23.4959V32.076H23.6459V31.926ZM25.6744 31.926V32.076H25.8244V31.926H25.6744ZM26.8008 31.926H26.6508V32.076H26.8008V31.926ZM30.1087 31.926V32.076H30.2587V31.926H30.1087ZM30.1087 33.0524H30.2587V32.9024H30.1087V33.0524ZM8.02761 33.0524V32.9024H7.87761V33.0524H8.02761ZM37.7833 11.7444C37.73 9.65324 36.8825 7.67521 35.3979 6.17507L35.1846 6.38609C36.6161 7.83252 37.4321 9.73804 37.4834 11.7521L37.7833 11.7444ZM31.2661 20.012C35.1144 19.1989 37.8849 15.7297 37.7833 11.7444L37.4834 11.7521C37.5813 15.5922 34.9113 18.9352 31.2041 19.7185L31.2661 20.012ZM31.3851 27.3426V19.8653H31.0851V27.3426H31.3851ZM30.6719 28.0558C31.0658 28.0558 31.3851 27.7365 31.3851 27.3426H31.0851C31.0851 27.5708 30.9001 27.7558 30.6719 27.7558V28.0558ZM29.9587 27.3426C29.9587 27.7365 30.2779 28.0558 30.6719 28.0558V27.7558C30.4436 27.7558 30.2587 27.5708 30.2587 27.3426H29.9587ZM29.9507 16.0906L29.9587 27.3427L30.2587 27.3425L30.2507 16.0904L29.9507 16.0906ZM30.6638 15.3774C30.2699 15.3774 29.9507 15.6967 29.9507 16.0905H30.2507C30.2507 15.8623 30.4356 15.6774 30.6638 15.6774V15.3774ZM31.377 16.0905C31.377 15.6967 31.0578 15.3774 30.6638 15.3774V15.6774C30.8921 15.6774 31.077 15.8623 31.077 16.0905H31.377ZM31.377 18.7118V16.0905H31.077V18.7118H31.377ZM36.3574 11.7808C36.4393 14.9995 34.2562 17.8111 31.1912 18.5662L31.2629 18.8575C34.4639 18.0689 36.7428 15.1336 36.6573 11.7731L36.3574 11.7808ZM34.384 7.1783C35.613 8.42015 36.3134 10.0545 36.3574 11.7808L36.6573 11.7731C36.6113 9.96961 35.8793 8.26275 34.5973 6.96728L34.384 7.1783ZM29.8027 5.15769C31.5281 5.21924 33.155 5.93638 34.384 7.1783L34.5973 6.96728C33.3152 5.67172 31.6161 4.92219 29.8134 4.85788L29.8027 5.15769ZM27.193 5.57431C28.0267 5.26587 28.9045 5.12579 29.8027 5.15769L29.8134 4.85788C28.8765 4.82461 27.9597 4.97077 27.0889 5.29295L27.193 5.57431ZM26.4041 5.36969C26.5984 5.59617 26.9131 5.67786 27.193 5.57431L27.0889 5.29294C26.9267 5.35294 26.7444 5.30563 26.6319 5.17438L26.4041 5.36969ZM18.7115 1.82983C21.6713 1.82983 24.4751 3.12002 26.4041 5.36967L26.6319 5.17439C24.6459 2.85837 21.759 1.52983 18.7115 1.52983V1.82983ZM11.1662 5.20206C13.0867 3.05891 15.837 1.82983 18.7115 1.82983V1.52983C15.7517 1.52983 12.9201 2.79527 10.9428 5.00185L11.1662 5.20206ZM10.4408 5.41232C10.703 5.48645 10.9844 5.40511 11.1663 5.20202L10.9428 5.00188C10.8375 5.11944 10.6745 5.16665 10.5225 5.12364L10.4408 5.41232ZM8.5826 5.15336C9.20876 5.15336 9.83404 5.24048 10.4408 5.4123L10.5225 5.12365C9.88937 4.94435 9.23659 4.85336 8.5826 4.85336V5.15336ZM1.77693 11.9591C1.77693 8.20653 4.8301 5.15336 8.5826 5.15336V4.85336C4.66441 4.85336 1.47693 8.04085 1.47693 11.9591H1.77693ZM3.44402 16.4212C2.36898 15.1847 1.77693 13.6 1.77693 11.9591H1.47693C1.47693 13.6722 2.09504 15.3268 3.21762 16.618L3.44402 16.4212ZM6.9376 18.563C5.5897 18.2277 4.36647 17.4822 3.44401 16.4212L3.21762 16.618C4.18055 17.7255 5.45755 18.504 6.86518 18.8541L6.9376 18.563ZM6.75139 16.0906V18.7086H7.05139V16.0906H6.75139ZM7.46457 15.3774C7.07071 15.3774 6.75139 15.6967 6.75139 16.0906H7.05139C7.05139 15.8624 7.23639 15.6774 7.46457 15.6774V15.3774ZM8.17776 16.0906C8.17776 15.6967 7.85844 15.3774 7.46457 15.3774V15.6774C7.69276 15.6774 7.87776 15.8624 7.87776 16.0906H8.17776ZM8.17776 23.7018V16.0906H7.87776V23.7018H8.17776ZM7.46457 24.415C7.85844 24.415 8.17776 24.0957 8.17776 23.7018H7.87776C7.87776 23.93 7.69276 24.115 7.46457 24.115V24.415ZM6.75139 23.7018C6.75139 24.0957 7.07071 24.415 7.46457 24.415V24.115C7.23639 24.115 7.05139 23.93 7.05139 23.7018H6.75139ZM6.75139 19.8651V23.7018H7.05139V19.8651H6.75139ZM2.36758 17.357C3.54548 18.7119 5.12964 19.6427 6.87027 20.0119L6.93251 19.7184C5.25576 19.3628 3.72919 18.466 2.59399 17.1602L2.36758 17.357ZM0.350488 11.959C0.350488 13.9438 1.06683 15.8608 2.36759 17.357L2.59399 17.1602C1.34075 15.7186 0.650488 13.8715 0.650488 11.959H0.350488ZM8.58253 3.72692C4.04326 3.72692 0.350488 7.41977 0.350488 11.959H0.650488C0.650488 7.58545 4.20895 4.02692 8.58253 4.02692V3.72692ZM10.485 3.95024C9.86059 3.80196 9.22225 3.72692 8.58253 3.72692V4.02692C9.19878 4.02692 9.81386 4.0992 10.4157 4.24212L10.485 3.95024ZM18.7115 0.403467C15.5488 0.403467 12.5185 1.70744 10.3417 3.99273L10.559 4.19964C12.6792 1.97361 15.6311 0.703467 18.7115 0.703467V0.403467ZM27.2285 4.14985C25.0402 1.76418 21.9581 0.403467 18.7115 0.403467V0.703467C21.8738 0.703467 24.8758 2.02876 27.0074 4.35264L27.2285 4.14985ZM29.8537 3.73235C28.9026 3.69832 27.969 3.82472 27.0727 4.10823L27.1632 4.39426C28.0264 4.1212 28.9258 3.99934 29.8429 4.03215L29.8537 3.73235ZM35.3979 6.17507C33.9132 4.67477 31.9441 3.80686 29.8536 3.73234L29.8429 4.03215C31.8562 4.10392 33.7531 4.93952 35.1846 6.38609L35.3979 6.17507ZM30.6719 28.8821C30.2779 28.8821 29.9587 29.2014 29.9587 29.5953H30.2587C30.2587 29.3671 30.4436 29.1821 30.6719 29.1821V28.8821ZM31.385 29.5953C31.3851 29.2014 31.0657 28.8821 30.6719 28.8821V29.1821C30.9001 29.1821 31.0851 29.3671 31.085 29.5952L31.385 29.5953ZM31.385 37.6084V29.5953H31.085V37.6084H31.385ZM29.8435 39.15C30.6936 39.15 31.385 38.4585 31.385 37.6084H31.085C31.085 38.2928 30.5279 38.85 29.8435 38.85V39.15ZM8.29283 39.15H29.8435V38.85H8.29283V39.15ZM6.75125 37.6084C6.75125 38.4586 7.44263 39.15 8.29283 39.15V38.85C7.60832 38.85 7.05125 38.2929 7.05125 37.6084H6.75125ZM6.75125 25.9545V37.6084H7.05125V25.9545H6.75125ZM7.46443 25.2413C7.07056 25.2413 6.75125 25.5606 6.75125 25.9545H7.05125C7.05125 25.7263 7.23624 25.5413 7.46443 25.5413V25.2413ZM8.17761 25.9545C8.17761 25.5606 7.8583 25.2413 7.46443 25.2413V25.5413C7.69261 25.5413 7.87761 25.7263 7.87761 25.9545H8.17761ZM8.17761 31.926V25.9545H7.87761V31.926H8.17761ZM11.5074 31.776H8.02761V32.076H11.5074V31.776ZM11.3574 25.3449V31.926H11.6574V25.3449H11.3574ZM12.0706 24.6317C11.6767 24.6317 11.3574 24.951 11.3574 25.3449H11.6574C11.6574 25.1167 11.8424 24.9317 12.0706 24.9317V24.6317ZM12.7838 25.3449C12.7838 24.951 12.4645 24.6317 12.0706 24.6317V24.9317C12.2988 24.9317 12.4838 25.1167 12.4838 25.3449H12.7838ZM12.7838 31.926V25.3449H12.4838V31.926H12.7838ZM15.1131 31.776H12.6338V32.076H15.1131V31.776ZM14.9631 22.8029V31.926H15.2631V22.8029H14.9631ZM15.6763 22.0897C15.2824 22.0897 14.9631 22.4091 14.9631 22.8029H15.2631C15.2631 22.5747 15.4481 22.3897 15.6763 22.3897V22.0897ZM16.3895 22.8029C16.3895 22.4091 16.0702 22.0897 15.6763 22.0897V22.3897C15.9045 22.3897 16.0895 22.5747 16.0895 22.8029H16.3895ZM16.3895 31.926V22.8029H16.0895V31.926H16.3895ZM18.7188 31.776H16.2395V32.076H18.7188V31.776ZM18.5688 25.3449V31.926H18.8688V25.3449H18.5688ZM19.282 24.6317C18.8881 24.6317 18.5688 24.951 18.5688 25.3449H18.8688C18.8688 25.1167 19.0538 24.9317 19.282 24.9317V24.6317ZM19.9952 25.3449C19.9952 24.9511 19.676 24.6317 19.282 24.6317V24.9317C19.5103 24.9317 19.6952 25.1167 19.6952 25.3449H19.9952ZM19.9952 31.926V25.3449H19.6952V31.926H19.9952ZM22.5195 31.776H19.8452V32.076H22.5195V31.776ZM22.3695 22.8029V31.926H22.6695V22.8029H22.3695ZM23.0827 22.0897C22.6887 22.0897 22.3695 22.4091 22.3695 22.8029H22.6695C22.6695 22.5747 22.8544 22.3897 23.0827 22.3897V22.0897ZM23.7959 22.8029C23.7959 22.4091 23.4766 22.0897 23.0827 22.0897V22.3897C23.3109 22.3897 23.4959 22.5747 23.4959 22.8029H23.7959ZM23.7959 31.926V22.8029H23.4959V31.926H23.7959ZM25.6744 31.776H23.6459V32.076H25.6744V31.776ZM25.5244 25.3448V31.926H25.8244V25.3448H25.5244ZM26.2376 24.6317C25.8437 24.6317 25.5244 24.951 25.5244 25.3448H25.8244C25.8244 25.1166 26.0094 24.9317 26.2376 24.9317V24.6317ZM26.9508 25.3448C26.9508 24.951 26.6316 24.6317 26.2376 24.6317V24.9317C26.4659 24.9317 26.6508 25.1166 26.6508 25.3448H26.9508ZM26.9508 31.926V25.3448H26.6508V31.926H26.9508ZM30.1087 31.776H26.8008V32.076H30.1087V31.776ZM29.9587 29.5953V31.926H30.2587V29.5953H29.9587ZM29.8435 37.7236H8.29283V38.0236H29.8435V37.7236ZM29.9587 37.6084C29.9587 37.6718 29.9069 37.7236 29.8435 37.7236V38.0236C30.0726 38.0236 30.2587 37.8374 30.2587 37.6084H29.9587ZM29.9587 33.0524V37.6084H30.2587V33.0524H29.9587ZM8.02761 33.2024H30.1087V32.9024H8.02761V33.2024ZM8.17761 37.6084V33.0524H7.87761V37.6084H8.17761ZM8.29283 37.7236C8.22943 37.7236 8.17761 37.6718 8.17761 37.6084H7.87761C7.87761 37.8374 8.06368 38.0236 8.29283 38.0236V37.7236Z" fill="#A9FFB2" mask="url(#path-1-outside-1)"/>
</svg>
