<svg width="30" height="28" viewBox="0 0 30 28" fill="none" xmlns="http://www.w3.org/2000/svg">
<g filter="url(#filter0_d)">
<path d="M25.4677 4.0986C25.1264 3.29655 24.6342 2.56975 24.0187 1.95886C23.4028 1.34616 22.6766 0.85925 21.8796 0.524616C21.0532 0.176245 20.1668 -0.002072 19.2719 1.81642e-05C18.0164 1.81642e-05 16.7915 0.348889 15.727 1.00787C15.4724 1.1655 15.2305 1.33865 15.0013 1.5273C14.7721 1.33865 14.5301 1.1655 14.2755 1.00787C13.211 0.348889 11.9861 1.81642e-05 10.7306 1.81642e-05C9.82659 1.81642e-05 8.95057 0.175746 8.12293 0.524616C7.3233 0.860566 6.60261 1.34382 5.98379 1.95886C5.36751 2.56906 4.87521 3.29604 4.53478 4.0986C4.18081 4.93331 4 5.8197 4 6.73193C4 7.59248 4.17317 8.4892 4.51696 9.40144C4.80472 10.1638 5.21727 10.9546 5.74441 11.7531C6.57969 13.0168 7.7282 14.3347 9.15429 15.6708C11.5175 17.8855 13.8578 19.4153 13.9572 19.4773L14.5607 19.8701C14.8281 20.0433 15.1719 20.0433 15.4393 19.8701L16.0428 19.4773C16.1421 19.4127 18.4799 17.8855 20.8457 15.6708C22.2718 14.3347 23.4203 13.0168 24.2556 11.7531C24.7827 10.9546 25.1978 10.1638 25.483 9.40144C25.8268 8.4892 26 7.59248 26 6.73193C26.0025 5.8197 25.8217 4.93331 25.4677 4.0986ZM15.0013 17.826C15.0013 17.826 5.93541 11.9314 5.93541 6.73193C5.93541 4.0986 8.08218 1.96403 10.7306 1.96403C12.5922 1.96403 14.2067 3.0184 15.0013 4.5586C15.7958 3.0184 17.4103 1.96403 19.2719 1.96403C21.9203 1.96403 24.0671 4.0986 24.0671 6.73193C24.0671 11.9314 15.0013 17.826 15.0013 17.826Z" fill="#A9FFB2"/>
</g>
<defs>
<filter id="filter0_d" x="0" y="0" width="30" height="28" filterUnits="userSpaceOnUse" color-interpolation-filters="sRGB">
<feFlood flood-opacity="0" result="BackgroundImageFix"/>
<feColorMatrix in="SourceAlpha" type="matrix" values="0 0 0 0 0 0 0 0 0 0 0 0 0 0 0 0 0 0 127 0"/>
<feOffset dy="4"/>
<feGaussianBlur stdDeviation="2"/>
<feColorMatrix type="matrix" values="0 0 0 0 0 0 0 0 0 0 0 0 0 0 0 0 0 0 0.25 0"/>
<feBlend mode="normal" in2="BackgroundImageFix" result="effect1_dropShadow"/>
<feBlend mode="normal" in="SourceGraphic" in2="effect1_dropShadow" result="shape"/>
</filter>
</defs>
</svg>
