<svg width="35" height="32" viewBox="0 0 35 32" fill="none" xmlns="http://www.w3.org/2000/svg">
<g filter="url(#filter0_d)">
<path d="M30.3468 4.91832C29.9278 3.95586 29.3238 3.08369 28.5684 2.35064C27.8125 1.61539 26.9213 1.0311 25.9431 0.62954C24.9289 0.211494 23.841 -0.0024864 22.7428 2.1797e-05C21.202 2.1797e-05 19.6987 0.418667 18.3923 1.20944C18.0797 1.39861 17.7828 1.60638 17.5015 1.83276C17.2203 1.60638 16.9234 1.39861 16.6108 1.20944C15.3044 0.418667 13.8011 2.1797e-05 12.2603 2.1797e-05C11.1508 2.1797e-05 10.0757 0.210895 9.05995 0.62954C8.07859 1.03268 7.19412 1.61258 6.43465 2.35064C5.67831 3.08287 5.07412 3.95524 4.65633 4.91832C4.2219 5.91997 4 6.98364 4 8.07832C4 9.11097 4.21252 10.187 4.63445 11.2817C4.98761 12.1965 5.49392 13.1455 6.14087 14.1037C7.16599 15.6201 8.57552 17.2017 10.3257 18.8049C13.2261 21.4625 16.0983 23.2984 16.2201 23.3728L16.9609 23.8442C17.289 24.0519 17.7109 24.0519 18.0391 23.8442L18.7798 23.3728C18.9017 23.2953 21.7708 21.4625 24.6742 18.8049C26.4244 17.2017 27.834 15.6201 28.8591 14.1037C29.506 13.1455 30.0155 12.1965 30.3655 11.2817C30.7874 10.187 31 9.11097 31 8.07832C31.0031 6.98364 30.7812 5.91997 30.3468 4.91832Z" fill="#FFACA9"/>
</g>
<defs>
<filter id="filter0_d" x="0" y="0" width="35" height="32" filterUnits="userSpaceOnUse" color-interpolation-filters="sRGB">
<feFlood flood-opacity="0" result="BackgroundImageFix"/>
<feColorMatrix in="SourceAlpha" type="matrix" values="0 0 0 0 0 0 0 0 0 0 0 0 0 0 0 0 0 0 127 0"/>
<feOffset dy="4"/>
<feGaussianBlur stdDeviation="2"/>
<feColorMatrix type="matrix" values="0 0 0 0 0 0 0 0 0 0 0 0 0 0 0 0 0 0 0.25 0"/>
<feBlend mode="normal" in2="BackgroundImageFix" result="effect1_dropShadow"/>
<feBlend mode="normal" in="SourceGraphic" in2="effect1_dropShadow" result="shape"/>
</filter>
</defs>
</svg>
