<svg width="33" height="33" viewBox="0 0 33 33" fill="none" xmlns="http://www.w3.org/2000/svg">
<path d="M31.3195 11.3124L29.8613 9.85416L25.132 14.5835L20.4026 9.85416L18.9445 11.3124L23.6738 16.0417L18.9445 20.7699L20.4037 22.2292L25.132 17.4999L29.8623 22.2292L31.3195 20.772L26.5901 16.0417L31.3195 11.3124Z" fill="#111111"/>
<path d="M4.50696 3.66667C3.95995 3.66667 3.43534 3.88397 3.04855 4.27076C2.66176 4.65755 2.44446 5.18216 2.44446 5.72917V8.99823C2.44438 9.26923 2.49771 9.5376 2.6014 9.78798C2.70509 10.0384 2.85711 10.2659 3.04877 10.4574L10.6945 18.1042V26.3542C10.6945 26.9012 10.9118 27.4258 11.2986 27.8126C11.6853 28.1994 12.2099 28.4167 12.757 28.4167H16.882C17.429 28.4167 17.9536 28.1994 18.3404 27.8126C18.7272 27.4258 18.9445 26.9012 18.9445 26.3542V24.2917H16.882V26.3542H12.757V17.2482L12.1526 16.6449L4.50696 8.99926V5.72917H25.132V7.79167H27.1945V5.72917C27.1945 5.18216 26.9772 4.65755 26.5904 4.27076C26.2036 3.88397 25.679 3.66667 25.132 3.66667H4.50696Z" fill="#111111"/>
</svg>
