<svg width="19" height="18" viewBox="0 0 19 18" fill="none" xmlns="http://www.w3.org/2000/svg">
<path d="M9.27268 1.36361C13.4727 1.36361 16.909 4.79997 16.909 8.99997C16.909 13.2 13.4727 16.6363 9.27268 16.6363C5.07268 16.6363 1.63631 13.2 1.63631 8.99997C1.63631 4.79997 5.07268 1.36361 9.27268 1.36361ZM9.27268 0.0908813C4.37268 0.0908813 0.363586 4.09997 0.363586 8.99997C0.363586 13.9 4.37268 17.9091 9.27268 17.9091C14.1727 17.9091 18.1818 13.9 18.1818 8.99997C18.1818 4.09997 14.1727 0.0908813 9.27268 0.0908813Z" fill="#A9FFB2"/>
<path d="M14.3636 8.3636H9.90904V3.90906H8.63631V8.3636H4.18176V9.63633H8.63631V14.0909H9.90904V9.63633H14.3636V8.3636Z" fill="#A9FFB2"/>
</svg>
