<svg width="21" height="21" viewBox="0 0 21 21" fill="none" xmlns="http://www.w3.org/2000/svg">
<path d="M10.1818 2.54543C14.3818 2.54543 17.8182 5.9818 17.8182 10.1818C17.8182 14.3818 14.3818 17.8182 10.1818 17.8182C5.9818 17.8182 2.54543 14.3818 2.54543 10.1818C2.54543 5.9818 5.9818 2.54543 10.1818 2.54543ZM10.1818 1.27271C5.2818 1.27271 1.27271 5.2818 1.27271 10.1818C1.27271 15.0818 5.2818 19.0909 10.1818 19.0909C15.0818 19.0909 19.0909 15.0818 19.0909 10.1818C19.0909 5.2818 15.0818 1.27271 10.1818 1.27271Z" fill="#111111"/>
<path d="M15.2727 9.54543H10.8182V5.09088H9.54543V9.54543H5.09088V10.8182H9.54543V15.2727H10.8182V10.8182H15.2727V9.54543Z" fill="#111111"/>
</svg>
