<svg width="37" height="37" viewBox="0 0 37 37" fill="none" xmlns="http://www.w3.org/2000/svg">
<path d="M31.1271 9.02967H26.2484L25.0862 5.77246C25.0059 5.54958 24.8587 5.35692 24.6648 5.2208C24.4709 5.08469 24.2397 5.01175 24.0028 5.01196H12.9972C12.5129 5.01196 12.0788 5.31688 11.9174 5.77246L10.7516 9.02967H5.8729C4.28734 9.02967 3.00311 10.3139 3.00311 11.8995V28.2573C3.00311 29.8428 4.28734 31.1271 5.8729 31.1271H31.1271C32.7126 31.1271 33.9969 29.8428 33.9969 28.2573V11.8995C33.9969 10.3139 32.7126 9.02967 31.1271 9.02967ZM31.4141 28.2573C31.4141 28.4151 31.2849 28.5443 31.1271 28.5443H5.8729C5.71507 28.5443 5.58593 28.4151 5.58593 28.2573V11.8995C5.58593 11.7416 5.71507 11.6125 5.8729 11.6125H12.5703L13.1837 9.89778L14.0052 7.59478H22.9912L23.8127 9.89778L24.4261 11.6125H31.1271C31.2849 11.6125 31.4141 11.7416 31.4141 11.8995V28.2573ZM18.5 13.9083C15.3289 13.9083 12.7604 16.4768 12.7604 19.6479C12.7604 22.819 15.3289 25.3875 18.5 25.3875C21.6711 25.3875 24.2396 22.819 24.2396 19.6479C24.2396 16.4768 21.6711 13.9083 18.5 13.9083ZM18.5 23.0917C16.5988 23.0917 15.0562 21.5491 15.0562 19.6479C15.0562 17.7467 16.5988 16.2042 18.5 16.2042C20.4012 16.2042 21.9437 17.7467 21.9437 19.6479C21.9437 21.5491 20.4012 23.0917 18.5 23.0917Z" fill="#252525"/>
</svg>
