<svg width="15" height="15" viewBox="0 0 15 15" fill="none" xmlns="http://www.w3.org/2000/svg">
<path d="M9.95248 8.96255L7.9156 6.96077V2.15533C7.9156 2.0699 7.86418 2 7.80133 2H7.11427C7.05142 2 7 2.0699 7 2.15533V7.50247C7 7.55296 7.01714 7.59955 7.04714 7.62868L9.4097 9.97024C9.46112 10.0207 9.53254 10.0052 9.56968 9.93723L9.9782 9.18001C10.0153 9.10817 10.0039 9.01109 9.95248 8.96255Z" fill="#A9FFB2"/>
<path d="M7.5 0C3.35826 0 0 3.35826 0 7.5C0 11.6417 3.35826 15 7.5 15C11.6417 15 15 11.6417 15 7.5C15 3.35826 11.6417 0 7.5 0ZM7.5 13.7277C4.06138 13.7277 1.27232 10.9386 1.27232 7.5C1.27232 4.06138 4.06138 1.27232 7.5 1.27232C10.9386 1.27232 13.7277 4.06138 13.7277 7.5C13.7277 10.9386 10.9386 13.7277 7.5 13.7277Z" fill="#A9FFB2"/>
</svg>
