<svg width="37" height="37" viewBox="0 0 37 37" fill="none" xmlns="http://www.w3.org/2000/svg">
<path d="M22.4023 13.7305C22.0034 13.7305 21.6797 14.0542 21.6797 14.4531C21.6797 14.852 22.0034 15.1758 22.4023 15.1758C22.8012 15.1758 23.125 14.852 23.125 14.4531C23.125 14.0542 22.8012 13.7305 22.4023 13.7305Z" fill="#A9FFB2"/>
<path d="M36.1531 32.0656L26.5071 22.4196C28.0785 20.0526 28.9062 17.3116 28.9062 14.4531C28.9062 6.48367 22.4226 0 14.4531 0C6.48367 0 0 6.48367 0 14.4531C0 22.4226 6.48367 28.9062 14.4531 28.9062C17.3117 28.9062 20.0527 28.0784 22.4196 26.5072L25.0859 29.1734C25.0862 29.1738 25.0866 29.1741 25.087 29.1746L32.0656 36.1531C32.6117 36.6992 33.3375 37 34.1094 37C34.8812 37 35.607 36.6992 36.1529 36.1533C36.6992 35.6075 37 34.8817 37 34.1094C37 33.3371 36.6992 32.6112 36.1531 32.0656ZM22.0798 24.9842C22.0798 24.9842 22.0797 24.9843 22.0796 24.9843C19.849 26.6045 17.2119 27.4609 14.4531 27.4609C7.28062 27.4609 1.44531 21.6256 1.44531 14.4531C1.44531 7.28062 7.28062 1.44531 14.4531 1.44531C21.6256 1.44531 27.4609 7.28062 27.4609 14.4531C27.4609 17.2119 26.6045 19.849 24.9842 22.0797C24.1736 23.1964 23.1965 24.1736 22.0798 24.9842ZM23.5959 25.6393C24.3438 25.0275 25.0275 24.3438 25.6393 23.5959L27.6896 25.6461C27.0661 26.382 26.382 27.0662 25.6461 27.6896L23.5959 25.6393ZM35.1311 35.1311C34.858 35.4043 34.4951 35.5547 34.1094 35.5547C33.7236 35.5547 33.3608 35.4043 33.0876 35.1311L26.6708 28.7143C27.4026 28.0863 28.0863 27.4027 28.7142 26.6709L35.1313 33.0879C35.4043 33.3606 35.5547 33.7233 35.5547 34.1094C35.5547 34.4954 35.4043 34.8581 35.1311 35.1311Z" fill="#A9FFB2"/>
<path d="M14.4531 2.89062C8.07749 2.89062 2.89062 8.07749 2.89062 14.4531C2.89062 20.8288 8.07749 26.0156 14.4531 26.0156C20.8288 26.0156 26.0156 20.8288 26.0156 14.4531C26.0156 8.07749 20.8288 2.89062 14.4531 2.89062ZM14.4531 24.5703C8.87451 24.5703 4.33594 20.0317 4.33594 14.4531C4.33594 8.87451 8.87451 4.33594 14.4531 4.33594C20.0317 4.33594 24.5703 8.87451 24.5703 14.4531C24.5703 20.0317 20.0317 24.5703 14.4531 24.5703Z" fill="#A9FFB2"/>
<path d="M22.5516 11.351C21.9293 9.73136 20.8458 8.34661 19.4181 7.34652C17.9565 6.32252 16.2396 5.78125 14.4531 5.78125C14.0541 5.78125 13.7305 6.10486 13.7305 6.50391C13.7305 6.90296 14.0541 7.22656 14.4531 7.22656C17.4232 7.22656 20.1354 9.09232 21.2024 11.8694C21.3129 12.1567 21.5867 12.3331 21.8772 12.3331C21.9633 12.3331 22.051 12.3175 22.1362 12.2848C22.5087 12.1416 22.6947 11.7236 22.5516 11.351Z" fill="#A9FFB2"/>
</svg>
