<svg width="20" height="12" viewBox="0 0 20 12" fill="none" xmlns="http://www.w3.org/2000/svg">
<path fill-rule="evenodd" clip-rule="evenodd" d="M6.66667 11.1429C6.66667 10.9155 6.75446 10.6975 6.91074 10.5368C7.06702 10.376 7.27899 10.2857 7.5 10.2857H12.5C12.721 10.2857 12.933 10.376 13.0893 10.5368C13.2455 10.6975 13.3333 10.9155 13.3333 11.1429C13.3333 11.3702 13.2455 11.5882 13.0893 11.7489C12.933 11.9097 12.721 12 12.5 12H7.5C7.27899 12 7.06702 11.9097 6.91074 11.7489C6.75446 11.5882 6.66667 11.3702 6.66667 11.1429ZM3.33333 6C3.33333 5.77267 3.42113 5.55465 3.57741 5.39391C3.73369 5.23316 3.94565 5.14286 4.16667 5.14286H15.8333C16.0543 5.14286 16.2663 5.23316 16.4226 5.39391C16.5789 5.55465 16.6667 5.77267 16.6667 6C16.6667 6.22733 16.5789 6.44535 16.4226 6.60609C16.2663 6.76684 16.0543 6.85714 15.8333 6.85714H4.16667C3.94565 6.85714 3.73369 6.76684 3.57741 6.60609C3.42113 6.44535 3.33333 6.22733 3.33333 6ZM0 0.857143C0 0.629814 0.0877975 0.411797 0.244078 0.251051C0.400358 0.090306 0.61232 0 0.833333 0H19.1667C19.3877 0 19.5996 0.090306 19.7559 0.251051C19.9122 0.411797 20 0.629814 20 0.857143C20 1.08447 19.9122 1.30249 19.7559 1.46323C19.5996 1.62398 19.3877 1.71429 19.1667 1.71429H0.833333C0.61232 1.71429 0.400358 1.62398 0.244078 1.46323C0.0877975 1.30249 0 1.08447 0 0.857143Z" fill="#252525"/>
</svg>
