<svg width="30" height="24" viewBox="0 0 30 24" fill="none" xmlns="http://www.w3.org/2000/svg">
<path d="M28.6973 5.06502C28.2551 4.13356 27.6174 3.28947 26.8199 2.58002C26.0219 1.86845 25.0809 1.30298 24.0483 0.914351C22.9775 0.509767 21.8291 0.302678 20.6696 0.305105C19.0429 0.305105 17.4558 0.710268 16.0766 1.47558C15.7467 1.65865 15.4332 1.85973 15.1363 2.07882C14.8393 1.85973 14.5259 1.65865 14.1959 1.47558C12.8167 0.710268 11.2296 0.305105 9.60297 0.305105C8.43164 0.305105 7.2966 0.509188 6.22426 0.914351C5.18821 1.30451 4.25444 1.86573 3.45266 2.58002C2.65416 3.28867 2.0163 4.13296 1.57522 5.06502C1.11659 6.03441 0.882324 7.06383 0.882324 8.12325C0.882324 9.12265 1.10669 10.1641 1.55213 11.2235C1.92497 12.1089 2.4595 13.0272 3.1425 13.9546C4.22474 15.4222 5.71283 16.9528 7.56057 18.5044C10.6225 21.0765 13.6548 22.8532 13.7835 22.9252L14.5655 23.3814C14.9119 23.5825 15.3573 23.5825 15.7038 23.3814L16.4858 22.9252C16.6145 22.8502 19.6434 21.0765 22.7087 18.5044C24.5564 16.9528 26.0445 15.4222 27.1268 13.9546C27.8098 13.0272 28.3476 12.1089 28.7171 11.2235C29.1626 10.1641 29.3869 9.12265 29.3869 8.12325C29.3902 7.06383 29.156 6.03441 28.6973 5.06502Z" fill="#A9FFB2"/>
</svg>
