<svg width="20" height="20" viewBox="0 0 20 20" fill="none" xmlns="http://www.w3.org/2000/svg">
<path d="M18.5487 5.07217L14.8966 1.42002C14.7281 1.25156 14.5215 1.12803 14.2969 1.06064V1H1.71875C1.32119 1 1 1.32119 1 1.71875V18.25C1 18.6476 1.32119 18.9688 1.71875 18.9688H18.25C18.6476 18.9688 18.9688 18.6476 18.9688 18.25V6.0874C18.9688 5.70557 18.8183 5.3417 18.5487 5.07217ZM7.10938 2.61719H12.8594V4.95312H7.10938V2.61719ZM17.3516 17.3516H2.61719V2.61719H5.67188V5.67188C5.67188 6.06943 5.99307 6.39062 6.39062 6.39062H13.5781C13.9757 6.39062 14.2969 6.06943 14.2969 5.67188V3.10684L17.3516 6.16152V17.3516ZM9.98438 8.41211C8.19873 8.41211 6.75 9.86084 6.75 11.6465C6.75 13.4321 8.19873 14.8809 9.98438 14.8809C11.77 14.8809 13.2188 13.4321 13.2188 11.6465C13.2188 9.86084 11.77 8.41211 9.98438 8.41211ZM9.98438 13.4434C8.9916 13.4434 8.1875 12.6393 8.1875 11.6465C8.1875 10.6537 8.9916 9.84961 9.98438 9.84961C10.9771 9.84961 11.7812 10.6537 11.7812 11.6465C11.7812 12.6393 10.9771 13.4434 9.98438 13.4434Z" fill="white" stroke="white"/>
</svg>
